<svg xmlns="http://www.w3.org/2000/svg" width="53" height="53" viewBox="0 0 53 53"><rect width="53" height="53" fill="#f1ebeb"/><path d="M-568.489,577.939a12.062,12.062,0,0,1-3.484.956,6.069,6.069,0,0,0,2.666-3.356,12.159,12.159,0,0,1-3.851,1.473,6.05,6.05,0,0,0-4.426-1.916,6.07,6.07,0,0,0-5.907,7.445,17.218,17.218,0,0,1-12.5-6.336,6.073,6.073,0,0,0,1.877,8.1,6.056,6.056,0,0,1-2.746-.759A6.07,6.07,0,0,0-592,589.565a6.086,6.086,0,0,1-2.737.1,6.068,6.068,0,0,0,5.665,4.21,12.186,12.186,0,0,1-8.98,2.513,17.17,17.17,0,0,0,9.3,2.725c11.259,0,17.619-9.51,17.236-18.038A12.361,12.361,0,0,0-568.489,577.939Z" transform="translate(609.768 -560.132)" fill="#32322f"/></svg>